inDegrees=no
num_controls=7
num_derivatives=13
num_iterations=66
num_multipliers=7
num_parameters=0
num_slacks=7
num_states=26
objective=0.459307
objective_accelerations=0.023637
objective_balance=0.001216
objective_effort=0.011446
objective_height=0.417614
objective_ligament=0.005394
solver_duration=1002.305571
status=Solve_Succeeded
success=true
DataType=double
version=3
OpenSimVersion=4.5
endheader
time	/jointset/ground_pelvis/pelvis_tilt/value	/jointset/ground_pelvis/pelvis_tx/value	/jointset/ground_pelvis/pelvis_ty/value	/jointset/hip_l/hip_flexion_l/value	/jointset/hip_l/hip_adduction_l/value	/jointset/hip_l/hip_rotation_l/value	/jointset/back/lumbar_extension/value	/jointset/patellofemoral_l/patellar_flexion_l/value	/jointset/knee_l/knee_flexion_l/value	/jointset/knee_l/knee_adduction_l/value	/jointset/knee_l/knee_rotation_l/value	/jointset/ankle_l/ankle_angle_l/value	/jointset/subtalar_l/subtalar_angle_l/value	/jointset/ground_pelvis/pelvis_tilt/speed	/jointset/ground_pelvis/pelvis_tx/speed	/jointset/ground_pelvis/pelvis_ty/speed	/jointset/hip_l/hip_flexion_l/speed	/jointset/hip_l/hip_adduction_l/speed	/jointset/hip_l/hip_rotation_l/speed	/jointset/back/lumbar_extension/speed	/jointset/patellofemoral_l/patellar_flexion_l/speed	/jointset/knee_l/knee_flexion_l/speed	/jointset/knee_l/knee_adduction_l/speed	/jointset/knee_l/knee_rotation_l/speed	/jointset/ankle_l/ankle_angle_l/speed	/jointset/subtalar_l/subtalar_angle_l/speed	/forceset/tau_hip_flexion_l	/forceset/tau_hip_adduction_l	/forceset/tau_hip_rotation_l	/forceset/tau_knee_flexion_l	/forceset/tau_ankle_angle_l	/forceset/tau_subtalar_angle_l	/forceset/tau_lumbar_extension	lambda_cid13_p0	lambda_cid13_p1	lambda_cid13_p2	lambda_cid13_p3	lambda_cid13_p4	lambda_cid13_p5	lambda_cid14_p0	/jointset/ground_pelvis/pelvis_tilt/accel	/jointset/ground_pelvis/pelvis_tx/accel	/jointset/ground_pelvis/pelvis_ty/accel	/jointset/hip_l/hip_flexion_l/accel	/jointset/hip_l/hip_adduction_l/accel	/jointset/hip_l/hip_rotation_l/accel	/jointset/back/lumbar_extension/accel	/jointset/patellofemoral_l/patellar_flexion_l/accel	/jointset/knee_l/knee_flexion_l/accel	/jointset/knee_l/knee_adduction_l/accel	/jointset/knee_l/knee_rotation_l/accel	/jointset/ankle_l/ankle_angle_l/accel	/jointset/subtalar_l/subtalar_angle_l/accel	gamma_cid13_p0	gamma_cid13_p1	gamma_cid13_p2	gamma_cid13_p3	gamma_cid13_p4	gamma_cid13_p5	gamma_cid14_p0
1.5	-0.06320360449173708	0.1262725251605478	0.8495194462036766	0.3959166426686951	-0.4270621058391582	-0.3544104816770867	-0.1613846592534318	0.5450875175392039	0.5450875175389321	-0.1712920159336799	-0.1630423519892535	0.2361585337280493	0.05858113972208803	-0.137015156401647	-0.04038480329383234	0.1783728962166294	-0.5161949943357178	0.2508994002942437	-0.4664400380381555	0.3227784244949889	-1.292888620019703	-1.292888620019786	-0.005806560937734251	0.05708800876544982	-0.6995087401850311	-0.1246683563733364	-0.01059740933859646	0.05949791436031456	-0.01244224589582215	-0.2034688364497574	-0.03734615359455565	-0.008716751031958344	0.05187731182811972	-46.56951071884939	7.840351660059998	3.096522406060282	6.412322947544326	-536.440001876367	-47.30960670748759	-36.72740044912105	-0.02009174115728641	-0.05488303603071583	-0.2004364224051259	-0.1911255868374635	0.3642009961405967	-0.2309625797997446	0.2849881638029201	-0.8195869963652527	-0.8195869963652112	0.06058031396365284	-0.01104680753644807	-0.4698961148312368	0.2303286541983777	-6.741234393111481e-08	3.054295844502805e-07	2.543100661385347e-07	8.708354839630202e-08	-1.057380440502216e-07	-4.542778441301049e-08	-1.002871136318679e-08
1.51	-0.06457492358136763	0.1258659863212689	0.8512927136393796	0.3907465375624213	-0.4245352172686463	-0.3590868666066126	-0.1581426339316741	0.5321199845170987	0.5321199845170143	-0.1713465475469418	-0.1624733312527824	0.2291410865635446	0.05734623041384441	-0.1372220668669955	-0.04091704058165457	0.176245291919103	-0.5177528376550209	0.2544461079431427	-0.4687820547999577	0.3255778108438085	-1.300427641743886	-1.300427641743956	-0.005109830868527723	0.05668309604362676	-0.7038790702179434	-0.1222982280842361	-0.009798899207677764	0.05776464081456359	-0.01247673061949824	-0.2008683932099485	-0.03443492276621447	-0.009046742201810641	0.05085583328577483	-45.59100001186406	7.716768736307422	3.225386449048601	5.995458549713138	-535.2266989223024	-47.47434162776167	-37.1471741052611	-0.01702179782938064	-0.05148547812213051	-0.2242403120036794	-0.127158534522402	0.3449941961461518	-0.2275995616548546	0.2700895186515354	-0.692506336300918	-0.6925063362984935	0.07278657537896893	-0.06012317888745797	-0.4053538202057703	0.2425579478618776	-7.373091327318728e-08	3.43125763288519e-07	2.683526481586411e-07	9.56063496343399e-08	-1.11943366574237e-07	-3.977143013068268e-08	-1.010400798246429e-08
1.52	-0.06594751799543469	0.1254543068285195	0.8530436414563901	0.3855630450568589	-0.4219738439122886	-0.3637850273711876	-0.1548740796168094	0.519082771962699	0.5190827719626493	-0.1713943984153638	-0.1619093415780362	0.2220829856241722	0.05613546299480768	-0.1372702212764988	-0.0414129339878966	0.1739049724782989	-0.518872474176119	0.2577963574673221	-0.4707952050531098	0.3280842231218253	-1.306824526502314	-1.306824526502369	-0.004470411920137924	0.05608179634651451	-0.7076394951582547	-0.119839978531295	-0.009000389077196566	0.05603136726883001	-0.01251121534532731	-0.1982679499699596	-0.03152369193787019	-0.009376733371604233	0.04983435474302497	-44.62079304002146	7.595684156704954	3.352659297189831	5.590266374465545	-534.1341679128064	-47.65561649950161	-37.54759158626163	0.01165947001124772	-0.04761425971445524	-0.2429794510605891	-0.1034842271966827	0.3249093711968296	-0.1651892780701404	0.2263933496422318	-0.591159603214591	-0.5911596032144903	0.04911808980030832	-0.05032420259442072	-0.3479150963110541	0.2479529069666568	-7.085189082593337e-08	3.62723733732856e-07	2.492975023249044e-07	9.716067333018694e-08	-1.02915988948239e-07	-2.033445746152262e-08	-7.160215794419266e-09
1.53	-0.06731980192028843	0.1250378396290963	0.8547701496220939	0.3803705848832316	-0.4193798597437899	-0.3685008432927009	-0.1515820035434077	0.505987181071604	0.5059871810715492	-0.1714362682267959	-0.1613514579709891	0.2149903408391423	0.05494982992509462	-0.1371765377725312	-0.04187622795704914	0.1713630711068567	-0.5195123767563474	0.2609793232109978	-0.4722453364702747	0.3302922754080204	-1.312096506530877	-1.312096506530777	-0.0038993787176137	0.0555359888310496	-0.7107791273493776	-0.1172525599690526	-0.008113553475754286	0.05418672918804688	-0.01257200775310794	-0.1957571985338792	-0.02845054555811032	-0.009693020501693246	0.04875099391879043	-43.59833923924901	7.460582792604661	3.480929322994106	5.145595268759267	-533.035463244434	-47.88071382047179	-37.92996934093282	0.009708282613033326	-0.04502763782007778	-0.264846754670589	-0.02818615255611583	0.3117518280288804	-0.11652757880597	0.2122037455182834	-0.4656458846640715	-0.4656458846404177	0.06179212483341049	-0.05052299231089482	-0.2804315555355056	0.2691716133955156	-5.820042710252029e-08	3.630923577586729e-07	1.950760206464597e-07	9.13109896374563e-08	-7.770386741285184e-08	1.374442224364654e-08	-1.008641748594106e-09
1.54	-0.06869085191176373	0.1246168713555214	0.8564702285191839	0.3751749371078911	-0.4167546935874638	-0.3732274810294113	-0.148269008431689	0.4928447846439366	0.4928447846437314	-0.1714722884685345	-0.1607977952320347	0.207869610877195	0.05379107809750872	-0.1370234345875326	-0.04231314881823349	0.1686191187557376	-0.5195099945013483	0.2640327550377286	-0.4729595680980686	0.3322680307906175	-1.316185633838924	-1.316185633838669	-0.003300497940903281	0.05523762266405555	-0.7132565305414214	-0.1144637301051094	-0.007226717874716659	0.05234209110729719	-0.01263280016273863	-0.1932464470976541	-0.02537739917834789	-0.01000930763170823	0.0476676330941739	-42.58173359383022	7.328082799408671	3.606983808321826	4.708055498431071	-532.0213792017843	-48.11794563890221	-38.2943811776157	0.02354340621686617	-0.04233963812050252	-0.2833896469959327	0.02497273984854925	0.2990025878079725	-0.01800932019638712	0.1799339689224698	-0.354589059111974	-0.3545890591119861	0.0546876046375218	-0.0008359329003740437	-0.2154692964950883	0.2882351673070043	-4.633175463011648e-08	3.524465848913258e-07	1.446328873304015e-07	8.419411012279808e-08	-5.660744633973488e-08	4.24073254881606e-08	4.073994521826334e-09
1.55	-0.07005980954326381	0.1241917033075429	0.8581419297642277	0.3699819628807458	-0.414099826873586	-0.3779570779405194	-0.1449376256089628	0.4796671205309282	0.4796671205309791	-0.171502845657397	-0.1602454890087897	0.200727318738986	0.0526608958072799	-0.1367403394640122	-0.04271266810641849	0.1656930619931128	-0.5190181039748875	0.2669021531392429	-0.4728088013021875	0.3339584829907702	-1.31916755291103	-1.319167552910918	-0.002852732798703809	0.05528557870792279	-0.7150973312839828	-0.1115656635593855	-0.006354513730244113	0.05047233805993157	-0.01271001310790271	-0.190760007779817	-0.02221167809956096	-0.01034250589750225	0.04661422278067803	-41.53884911170628	7.20171024005717	3.728194837290166	4.236955499992893	-531.0562740721957	-48.34353287576086	-38.64026779124247	0.03484097792212024	-0.03757500190312855	-0.3014301631970077	0.07129346780053467	0.2750970786587252	0.05428099335724885	0.1560932307877853	-0.2430499685422352	-0.243049968563279	0.03360779746508197	0.01691472553795511	-0.1526951174041337	0.291594169727813	-3.536499381648419e-08	3.291103112557687e-07	9.854306843187556e-08	7.56172006393973e-08	-4.025302797314635e-08	6.483008194105065e-08	7.925028572758797e-09
1.56	-0.07142510654109875	0.1237627766811362	0.8597835271471816	0.3647959068105364	-0.4114174284472584	-0.3826806349208631	-0.1415908397872152	0.4664650258997994	0.4664650259000355	-0.1715301678292479	-0.1596908425544366	0.1935697566624962	0.05155989453680846	-0.1362913078402831	-0.04306486450388807	0.1625983463380216	-0.518126363098157	0.2695390975341947	-0.4717515819512149	0.3353486305999657	-1.321071737474436	-1.321071737474467	-0.002653494518360958	0.05570566885211432	-0.7163105181972588	-0.108627526152749	-0.005482309586043585	0.04860258501263343	-0.01278722605405385	-0.188273568461913	-0.01904595702076067	-0.01067570416318442	0.04556081246689159	-40.50026735210956	7.078211190034967	3.846527185412827	3.770052422389456	-530.1538809608971	-48.57874416079027	-38.96726623836268	0.05673070625788518	-0.0328750599770051	-0.3171214254891901	0.1049428099021931	0.2525118464955627	0.1632811908214987	0.1198730507307603	-0.1390421573723842	-0.1390421573723923	0.004982232266145826	0.07359088716437781	-0.0899465306377171	0.296249339489773	-2.31910923108437e-08	2.981570289252078e-07	5.10744493423151e-08	6.522716538037823e-08	-2.163724669629633e-08	8.440411718079728e-08	1.165771077002741e-08
